<?xml version="1.0" encoding="UTF-8"?>
<svg width="696px" height="204px" viewBox="0 0 696 204" version="1.1" xmlns="http://www.w3.org/2000/svg" xmlns:xlink="http://www.w3.org/1999/xlink">
    <!-- Generator: Sketch 48.2 (47327) - http://www.bohemiancoding.com/sketch -->
    <title>runner-04-04</title>
    <desc>Created with Sketch.</desc>
    <defs></defs>
    <g id="Home-page" stroke="none" stroke-width="1" fill="none" fill-rule="evenodd" transform="translate(-423.000000, -221.000000)">
        <g id="runner-04-04" transform="translate(423.000000, 191.000000)">
            <path d="M525.520606,189.397455 C525.520606,189.397455 524.023844,191.123672 524.000411,191.349985 C523.976002,191.576298 525.045118,192.952653 525.645581,192.999994 C525.724666,193.005767 526,189.001407 526,189.001407 C525.854522,188.97254 525.520606,189.397455 525.520606,189.397455 Z" id="Shape" fill="#FFFFFF" fill-rule="nonzero"></path>
            <path d="M525.229896,200 L524.401929,200.583344 C524.401929,200.583344 524.163665,200.525552 524.064955,200.661906 C523.923699,200.856054 524.053042,201.050201 524.07857,201.114314 C524.121968,201.227191 524.360232,201.579365 524.527017,201.867425 C524.693802,202.154582 525.048645,201.911672 524.922706,201.735585 C524.798468,201.557692 524.777195,201.18204 524.777195,201.18204 L526,200.609532" id="Shape" fill="#1A171B" fill-rule="nonzero"></path>
            <path d="M545.182371,43.9609313 C533.332657,43.241389 524.314235,32.8265709 525.041018,20.6982036 C525.768853,8.56983633 535.965927,-0.679302124 547.815641,0.0391804467 C559.665355,0.758722726 568.684831,11.1724812 567.959102,23.3019082 C567.231266,35.4292157 557.033139,44.6783542 545.182371,43.9609313 Z" id="Shape" fill-rule="nonzero"></path>
            <path d="M548.545062,50.8357152 C548.545062,50.8357152 548.408918,51.277305 548.47751,51.4158226 C548.545062,51.5512157 549.497027,52.0615435 549.700723,51.993847 C549.904418,51.9271919 550.109153,51.6189122 549.97197,51.3793706 C549.835827,51.1419119 549.257997,50.9711083 549.39414,50.2910184 C549.530284,49.609887 549.835827,49.1682972 549.936635,48.9641661 C550.038483,48.7600349 550.445875,47.4665101 550.445875,47.4665101 C550.445875,47.4665101 550.744143,45.7199392 550.744143,45.5845461 C550.744143,45.4481115 551.22844,42.8693938 551.194144,42.3580245 C551.160888,41.8476967 551.285599,40.7770497 551.245068,40.5541719 C551.160888,40.0761301 551.041372,39.4293677 550.905229,38.9190399 C550.769085,38.408712 550.812734,36.3632348 550.909386,35.9310184 C551.00188,35.5154657 551.164005,34.6541574 551.164005,34.6541574 C551.164005,34.6541574 552.179366,37.4547115 552.553501,37.6932116 C552.926596,37.9317118 553.674866,38.4430811 553.912857,38.408712 C554.149809,38.3753845 553.83803,37.4370062 553.749693,37.4890805 C553.332948,37.734871 553.04819,37.1797593 552.883986,37.0037483 C552.383061,36.4673833 552.120128,34.9863912 552.120128,34.7812186 C552.120128,34.5781289 552.001652,34.0834234 551.660773,33.7095301 C551.321973,33.3356369 550.801303,33.1231739 550.031208,32.9940297 C549.878437,32.9690341 550.2692,32.7065797 550.45211,32.4576647 C550.647492,32.1931275 550.942642,31.1526836 550.669316,30.5923645 C550.413657,30.0695388 549.929361,29.9289383 549.598875,30.0310039 C548.909843,30.2455499 548.47751,30.6454802 548.510766,31.4286772 C548.545062,32.2118742 548.681205,32.4847434 548.783053,32.722202 C548.884901,32.9607022 548.909843,33.0190254 547.763536,33.2658574 C547.183627,33.3908356 545.182006,36.2965797 545.044823,36.5684074 C544.909719,36.8412766 545.113414,37.1131043 545.216302,37.1131043 C545.318149,37.1131043 546.259722,37.947334 546.259722,37.947334 L546.998638,38.5086946 L547.321849,39.2252366 L547.287553,40.1781957 L547.309378,41.9591356 L547.55984,42.1195243 L547.491249,43.174549 L547.220001,45.7282711 C547.220001,45.7282711 547.556723,46.3406645 547.967232,46.515634 C548.255107,46.6374878 548.555455,45.5158081 548.641713,45.2262751 C548.734208,44.919037 549.153031,42.9974965 549.317235,42.9787498 C549.414925,42.9683349 549.474163,45.0856746 549.501184,45.3533364 C549.568736,46.0688368 549.598875,47.6362723 549.360884,48.1466001 C549.122892,48.6569279 548.545062,50.8357152 548.545062,50.8357152 Z" id="Shape" fill="#28282B" fill-rule="nonzero"></path>
            <path d="M533.446685,58.6680473 C527.224579,62.676509 523.871614,75.0806881 534.422784,86.257744 C544.972899,97.435855 568.888393,104.621331 561.839138,121.546768 C554.789882,138.47326 522.348259,140.283232 467,154 C442.789439,160.00002 359.37345,177.600482 271,193 C169.54113,210.679719 0,234 0,234 L696,234 C696,234 692.830846,176.413841 670.646766,144.759761 C648.462687,113.10568 586.539526,96.7974977 579.184975,92.6444823 C571.830425,88.4925221 556.285723,81.8198419 548.97871,75.7190454 C541.787899,69.7153214 538.151823,66.8168628 543.055561,59.751672 C547.568436,53.2488687 639.296436,42.9623476 640.894746,42.0042841 C641.287721,41.8048634 549.102307,48.5851674 533.446685,58.6680473 Z" id="Shape" fill="#303033" fill-rule="nonzero"></path>
            <text id="I-have-no-special-ta" font-family="MarckScript-Regular, Marck Script" font-size="17" font-weight="normal" line-spacing="19" fill="#FCFCFC">
                <tspan x="292" y="208">I have no special talent. I am only passionately curious.</tspan>
            </text>
            <text id="A.Einstein" font-family="MarckScript-Regular, Marck Script" font-size="12" font-weight="normal" line-spacing="19" fill="#FCFCFC">
                <tspan x="629.848" y="223">A.Einstein</tspan>
            </text>
        </g>
    </g>
</svg>